<svg id="레이어_1" data-name="레이어 1" xmlns="http://www.w3.org/2000/svg" viewBox="0 0 161 161"><defs><style>.cls-1{fill:#fefefe;}</style></defs><title>그라</title><path class="cls-1" d="M62.63,54.79c-.21,2-1.53,3.09-3.19,4A5.42,5.42,0,0,0,57,61.14a110.53,110.53,0,0,0-4.74,13.32c-2.46,9.73,0,18.53,5.89,26.52,1.52,2.07,4.33,3.2,4.53,6.26,0,.22.81.39,1.24.57,7.44,3.17,14.94,6,23.31,5a32.77,32.77,0,0,0,13.7-5c1.33-.84,1.74-1.46-.1-2.55-6.53-3.83-12.86-8-19.41-11.79-2-1.17-1.94-2-.86-3.69q5.59-8.73,11-17.6c1.13-1.86,2-2.13,4-.9,9.33,5.86,18.77,11.54,28.17,17.28,4.64,2.83,9.24,5.7,13.94,8.43,1.78,1,2,1.91,1.23,3.94-7.47,19.9-21.65,32.74-42.05,37.45-18.72,4.33-36.31.66-51.46-12.11A57.11,57.11,0,0,1,25.41,92,58.33,58.33,0,0,1,69.66,24.09c19.26-4.49,37.06,0,52.17,13.1,3.72,3.21,6.54,7.45,9.76,11.24,1.18,1.4,1.25,2.47-.64,3.54-3.21,1.81-6.71,3.23-9.29,6.07-.35.39-1.34.74-1.66.53-1.36-.87-1.62-.73-1.19.85.09.33-.52,1.23-.8,1.22-1.46,0-2,.8-3,1.79-2.67,2.7-4.3,2.39-6.47-.63-1.42-2-2.64-4.09-4.11-6a13.93,13.93,0,0,0-2.5-2c-.81-.65-1.6-1.32-2.4-2h0l.78-.7-.79-.33-1-.84a1,1,0,0,0-.94-.13H95.62l-1.13-.86-2-.07.1-.23-1.06-.85h-.85l-2.07-.92-2,0-1.14-.07-1-.87a1.5,1.5,0,0,0-1,0,1.82,1.82,0,0,0-.92-.11H81.43l-1,.11a.84.84,0,0,0-.84,0l-1-.11-2.23,1.05-1.78.83-.1,1.21-1,0a1.42,1.42,0,0,0-.91-.09l-.65-.74-.39.69h-1l-1,.85a2.9,2.9,0,0,1-1,.16l-1,.81-1,1.26a2.07,2.07,0,0,0-.86,0l-1.12,0-1,1.07,0,0-1,1.07A1.28,1.28,0,0,0,62.63,54.79Z"/></svg>