<?xml version="1.0" encoding="utf-8"?>
<!-- Generator: Adobe Illustrator 23.0.6, SVG Export Plug-In . SVG Version: 6.00 Build 0)  -->
<svg version="1.1" id="레이어_1" xmlns="http://www.w3.org/2000/svg" xmlns:xlink="http://www.w3.org/1999/xlink" x="0px"
	 y="0px" viewBox="0 0 96 96" style="enable-background:new 0 0 96 96;" xml:space="preserve">
<style type="text/css">
	.st0{fill:none;}
</style>
<path class="st0" d="M0,0h96v96H0V0z"/>
<path d="M84,80c0,2.2-1.8,4-4,4H16c-2.2,0-4-1.8-4-4V38c0-1.2,0.6-2.4,1.5-3.2l32-24.9c1.4-1.1,3.5-1.1,4.9,0l32,24.9
	c1,0.8,1.5,1.9,1.5,3.2C84,38,84,80,84,80z M76,76V39.9L48,18.1L20,39.9V76H76z"/>
<path d="M48,67.8L27.3,51.2L48,34.7V45c11.4,0,20.7,9.3,20.7,20.7c0,0.6,0,1.1-0.1,1.7c-3-5.7-9-9.7-15.8-9.9l-0.6,0H48V67.8z"/>
</svg>
