<?xml version="1.0" encoding="utf-8"?>
<!-- Generator: Adobe Illustrator 23.0.6, SVG Export Plug-In . SVG Version: 6.00 Build 0)  -->
<svg version="1.1" id="레이어_1" xmlns="http://www.w3.org/2000/svg" xmlns:xlink="http://www.w3.org/1999/xlink" x="0px"
	 y="0px" viewBox="0 0 96 96" style="enable-background:new 0 0 96 96;" xml:space="preserve">
<style type="text/css">
	.st0{fill:none;}
</style>
<path class="st0" d="M0,0h96v96H0V0z"/>
<path d="M82.6,11.7v56c0,8.8-7.2,16-16,16s-16-7.2-16-16c0-8.8,7.2-16,16-16c2.8,0,5.6,0.7,8,2.1V23.7h-36v44c0,8.8-7.2,16-16,16
	s-16-7.2-16-16c0-8.8,7.2-16,16-16c2.8,0,5.6,0.7,8,2.1V11.7H82.6z"/>
</svg>
