<?xml version="1.0" encoding="utf-8"?>
<!-- Generator: Adobe Illustrator 23.0.6, SVG Export Plug-In . SVG Version: 6.00 Build 0)  -->
<svg version="1.1" id="레이어_1" xmlns="http://www.w3.org/2000/svg" xmlns:xlink="http://www.w3.org/1999/xlink" x="0px"
	 y="0px" viewBox="0 0 96 96" style="enable-background:new 0 0 96 96;" xml:space="preserve">
<style type="text/css">
	.st0{fill:none;}
</style>
<path class="st0" d="M0,0h96v96H0V0z"/>
<g>
	<g>
		<path d="M89.7,7.8c-32,32-48.4,48.4-80.4,80.4"/>
		<path d="M89.6,7.8c-1.6-1.6-4.1-1.6-5.7,0l-3.9,3.9H30.6v42.1c-2.4-1.4-5.2-2.1-8-2.1c-8.8,0-16,7.2-16,16c0,4.8,2.1,9.1,5.5,12
			l-2.8,2.8c-1.6,1.6-1.6,4.1,0,5.7c1.6,1.6,4.1,1.6,5.7,0l4.8-4.8c0.9,0.2,1.9,0.3,2.9,0.3c8.8,0,16-7.2,16-16v-3.2l36-36v25.3
			c-2.4-1.4-5.2-2.1-8-2.1c-8.8,0-16,7.2-16,16s7.2,16,16,16c8.8,0,16-7.2,16-16V20.5l7-7C91.2,11.9,91.2,9.3,89.6,7.8z M38.6,23.7
			h29.5L38.6,53.2V23.7z"/>
	</g>
</g>
</svg>
